<svg xmlns="http://www.w3.org/2000/svg" viewBox="0 0 1600 900" width="1600" height="900" role="img">
  <title>Golden hour at the shoreline near The Papaya Tree</title>
  <defs>
    <linearGradient id="g" x1="0" y1="0" x2="1" y2="1">
      <stop offset="0" stop-color="#F5EDDA" />
      <stop offset="1" stop-color="#243F34" />
    </linearGradient>
    <filter id="grain">
      <feTurbulence type="fractalNoise" baseFrequency="0.85" numOctaves="2" stitchTiles="stitch" result="noise" />
      <feColorMatrix in="noise" type="matrix" values="0 0 0 0 0  0 0 0 0 0  0 0 0 0 0  0 0 0 0.035 0" />
    </filter>
  </defs>
  <rect width="1600" height="900" fill="url(#g)" />
  <rect width="1600" height="900" filter="url(#grain)" />
  <g transform="translate(701 351) scale(1.98)" fill="none" stroke="#E3A24C" stroke-width="2.4" stroke-linecap="round" stroke-linejoin="round" opacity=".55">
    <path d="M10 54c8-10 16-10 24 0s16 10 24 0 16-10 24 0 16 10 24 0" /><path d="M10 68c8-10 16-10 24 0s16 10 24 0 16-10 24 0 16 10 24 0" /><path d="M10 40c8-10 16-10 24 0s16 10 24 0 16-10 24 0 16 10 24 0" opacity=".5" />
  </g>
</svg>