<svg xmlns="http://www.w3.org/2000/svg" viewBox="0 0 1200 900" width="1200" height="900" role="img">
  <title>The house pool ringed with green</title>
  <defs>
    <linearGradient id="g" x1="0" y1="0" x2="1" y2="1">
      <stop offset="0" stop-color="#F5EDDA" />
      <stop offset="1" stop-color="#243F34" />
    </linearGradient>
    <filter id="grain">
      <feTurbulence type="fractalNoise" baseFrequency="0.85" numOctaves="2" stitchTiles="stitch" result="noise" />
      <feColorMatrix in="noise" type="matrix" values="0 0 0 0 0  0 0 0 0 0  0 0 0 0 0  0 0 0 0.035 0" />
    </filter>
  </defs>
  <rect width="1200" height="900" fill="url(#g)" />
  <rect width="1200" height="900" filter="url(#grain)" />
  <g transform="translate(501 351) scale(1.98)" fill="none" stroke="#E3A24C" stroke-width="2.4" stroke-linecap="round" stroke-linejoin="round" opacity=".55">
    <path d="M14 62c6 6 12-6 18 0s12 6 18 0 12-6 18 0 12 6 18 0" /><path d="M14 78c6 6 12-6 18 0s12 6 18 0 12-6 18 0 12 6 18 0" /><path d="M30 30h8l-4 24h-4z" /><circle cx="34" cy="20" r="6" />
  </g>
</svg>